<svg width="1142" height="257" viewBox="0 0 1142 257" fill="none" xmlns="http://www.w3.org/2000/svg">
<path d="M1088.99 194.504C1079.31 194.504 1071.01 193.171 1064.09 190.506C1057.21 187.887 1051.74 184.31 1047.67 179.774C1043.61 175.238 1040.96 170.141 1039.75 164.483L1067.38 160.766C1068.23 162.917 1069.56 164.927 1071.38 166.798C1073.21 168.668 1075.61 170.165 1078.61 171.287C1081.65 172.456 1085.34 173.04 1089.69 173.04C1096.19 173.04 1101.54 171.451 1105.75 168.271C1110.01 165.138 1112.13 159.877 1112.13 152.489V132.779H1110.87C1109.56 135.772 1107.6 138.601 1104.98 141.266C1102.36 143.931 1098.99 146.106 1094.88 147.789C1090.76 149.473 1085.85 150.314 1080.15 150.314C1072.06 150.314 1064.69 148.444 1058.05 144.703C1051.46 140.915 1046.2 135.14 1042.27 127.378C1038.39 119.569 1036.45 109.702 1036.45 97.778C1036.45 85.5733 1038.44 75.3793 1042.41 67.1961C1046.39 59.0129 1051.67 52.8871 1058.26 48.8189C1064.9 44.7507 1072.18 42.7166 1080.08 42.7166C1086.11 42.7166 1091.16 43.7453 1095.23 45.8028C1099.3 47.8135 1102.57 50.3386 1105.05 53.3781C1107.57 56.3709 1109.52 59.3168 1110.87 62.216H1111.99V44.1194H1141.66V152.91C1141.66 162.075 1139.42 169.744 1134.93 175.916C1130.44 182.089 1124.22 186.718 1116.27 189.804C1108.37 192.937 1099.27 194.504 1088.99 194.504ZM1089.62 127.869C1094.43 127.869 1098.5 126.677 1101.82 124.292C1105.19 121.86 1107.76 118.4 1109.54 113.911C1111.36 109.375 1112.27 103.951 1112.27 97.6377C1112.27 91.325 1111.39 85.8539 1109.61 81.2245C1107.83 76.5484 1105.26 72.9244 1101.89 70.3525C1098.53 67.7806 1094.43 66.4947 1089.62 66.4947C1084.71 66.4947 1080.57 67.8274 1077.2 70.4928C1073.84 73.1114 1071.29 76.7588 1069.56 81.4349C1067.83 86.1111 1066.96 91.512 1066.96 97.6377C1066.96 103.857 1067.83 109.235 1069.56 113.77C1071.33 118.26 1073.88 121.743 1077.2 124.222C1080.57 126.653 1084.71 127.869 1089.62 127.869Z" fill="black"/>
<path d="M959.308 89.5714V151.858H929.428V44.1194H957.906V63.1279H959.168C961.553 56.8619 965.551 51.9052 971.162 48.2578C976.774 44.5636 983.578 42.7166 991.574 42.7166C999.056 42.7166 1005.58 44.3532 1011.14 47.6265C1016.71 50.8998 1021.03 55.5759 1024.12 61.6549C1027.21 67.6871 1028.75 74.8884 1028.75 83.2586V151.858H998.869V88.5894C998.915 81.9961 997.232 76.8523 993.818 73.1582C990.405 69.4173 985.705 67.5468 979.72 67.5468C975.698 67.5468 972.144 68.4119 969.058 70.1421C966.019 71.8723 963.634 74.3974 961.904 77.7174C960.22 80.9907 959.355 84.9421 959.308 89.5714Z" fill="black"/>
<path d="M887.463 151.857V44.1193H917.344V151.857H887.463ZM902.474 30.2312C898.031 30.2312 894.22 28.7582 891.041 25.8123C887.908 22.8195 886.341 19.2423 886.341 15.0805C886.341 10.9655 887.908 7.43506 891.041 4.4891C894.22 1.49637 898.031 0 902.474 0C906.916 0 910.704 1.49637 913.837 4.4891C917.016 7.43506 918.606 10.9655 918.606 15.0805C918.606 19.2423 917.016 22.8195 913.837 25.8123C910.704 28.7582 906.916 30.2312 902.474 30.2312Z" fill="black"/>
<path d="M813.443 153.611C805.26 153.611 797.848 151.507 791.208 147.298C784.615 143.043 779.378 136.8 775.497 128.57C771.662 120.294 769.745 110.147 769.745 98.1289C769.745 85.7839 771.732 75.5197 775.707 67.3365C779.682 59.1065 784.966 52.9574 791.559 48.8892C798.199 44.7742 805.471 42.7167 813.373 42.7167C819.405 42.7167 824.432 43.7454 828.454 45.8029C832.522 47.8137 835.795 50.3388 838.274 53.3783C840.799 56.371 842.716 59.3169 844.025 62.2161H844.937V8.20679H874.747V151.858H845.288V134.603H844.025C842.622 137.595 840.635 140.565 838.063 143.511C835.538 146.41 832.241 148.818 828.173 150.735C824.152 152.653 819.242 153.611 813.443 153.611ZM822.912 129.833C827.729 129.833 831.797 128.524 835.117 125.905C838.484 123.24 841.056 119.522 842.833 114.753C844.657 109.983 845.568 104.395 845.568 97.9886C845.568 91.5823 844.68 86.0177 842.903 81.2948C841.126 76.5719 838.554 72.9245 835.187 70.3526C831.821 67.7807 827.729 66.4948 822.912 66.4948C818.003 66.4948 813.864 67.8275 810.497 70.4929C807.131 73.1583 804.582 76.8524 802.852 81.5753C801.122 86.2982 800.257 91.7693 800.257 97.9886C800.257 104.255 801.122 109.796 802.852 114.612C804.629 119.382 807.177 123.123 810.497 125.835C813.864 128.5 818.003 129.833 822.912 129.833Z" fill="black"/>
<path d="M692.603 89.5714V151.858H662.722V44.1194H691.2V63.1279H692.462C694.847 56.8619 698.845 51.9052 704.457 48.2578C710.068 44.5636 716.872 42.7166 724.868 42.7166C732.35 42.7166 738.873 44.3532 744.438 47.6265C750.002 50.8998 754.328 55.5759 757.414 61.6549C760.5 67.6871 762.043 74.8884 762.043 83.2586V151.858H732.163V88.5894C732.21 81.9961 730.526 76.8523 727.113 73.1582C723.699 69.4173 718.999 67.5468 713.014 67.5468C708.993 67.5468 705.439 68.4119 702.352 70.1421C699.313 71.8723 696.928 74.3974 695.198 77.7174C693.515 80.9907 692.649 84.9421 692.603 89.5714Z" fill="black"/>
<path d="M590.718 153.892C583.845 153.892 577.719 152.699 572.341 150.314C566.964 147.883 562.708 144.306 559.575 139.583C556.489 134.813 554.946 128.874 554.946 121.767C554.946 115.781 556.045 110.754 558.243 106.686C560.44 102.618 563.433 99.3445 567.221 96.8662C571.009 94.3878 575.311 92.5174 580.127 91.2548C584.99 89.9923 590.087 89.1038 595.418 88.5894C601.684 87.9348 606.734 87.3269 610.569 86.7657C614.403 86.1578 617.185 85.2694 618.916 84.1003C620.646 82.9313 621.511 81.2011 621.511 78.9098V78.489C621.511 74.0467 620.108 70.6097 617.302 68.1781C614.543 65.7465 610.615 64.5307 605.518 64.5307C600.141 64.5307 595.862 65.7231 592.682 68.108C589.503 70.446 587.398 73.392 586.37 76.9459L558.734 74.7013C560.137 68.1547 562.895 62.4966 567.01 57.7269C571.125 52.9105 576.433 49.2164 582.933 46.6445C589.479 44.0259 597.055 42.7166 605.659 42.7166C611.644 42.7166 617.372 43.418 622.844 44.8208C628.361 46.2237 633.248 48.3981 637.503 51.344C641.805 54.29 645.195 58.0777 647.674 62.707C650.152 67.2896 651.391 72.7841 651.391 79.1904V151.858H623.054V136.917H622.212C620.482 140.284 618.167 143.253 615.268 145.825C612.369 148.35 608.885 150.338 604.817 151.787C600.749 153.19 596.049 153.892 590.718 153.892ZM599.276 133.27C603.671 133.27 607.553 132.405 610.919 130.675C614.286 128.898 616.928 126.513 618.845 123.52C620.763 120.527 621.721 117.137 621.721 113.35V101.916C620.786 102.524 619.5 103.085 617.863 103.6C616.274 104.067 614.473 104.512 612.462 104.933C610.452 105.307 608.441 105.657 606.43 105.985C604.42 106.265 602.596 106.522 600.959 106.756C597.452 107.271 594.389 108.089 591.771 109.211C589.152 110.333 587.118 111.853 585.668 113.77C584.219 115.641 583.494 117.979 583.494 120.785C583.494 124.853 584.967 127.962 587.913 130.114C590.905 132.218 594.693 133.27 599.276 133.27Z" fill="black"/>
<path d="M494.113 151.858V44.1195H523.082V62.9176H524.204C526.168 56.2307 529.465 51.1805 534.094 47.7669C538.724 44.3066 544.054 42.5764 550.087 42.5764C551.583 42.5764 553.196 42.6699 554.926 42.857C556.657 43.044 558.176 43.3012 559.486 43.6285V70.1422C558.083 69.7214 556.142 69.3473 553.664 69.02C551.186 68.6926 548.918 68.529 546.86 68.529C542.465 68.529 538.537 69.4876 535.076 71.4048C531.663 73.2752 528.95 75.8939 526.94 79.2607C524.976 82.6275 523.994 86.5087 523.994 90.9043V151.858H494.113Z" fill="black"/>
<path d="M375.938 151.858V8.20679H433.455C444.023 8.20679 452.838 9.77329 459.898 12.9063C466.959 16.0393 472.267 20.3881 475.821 25.9527C479.375 31.4706 481.152 37.8301 481.152 45.0314C481.152 50.6427 480.029 55.576 477.785 59.8313C475.54 64.0398 472.454 67.5002 468.526 70.2123C464.645 72.8777 460.202 74.7716 455.199 75.8938V77.2967C460.67 77.5305 465.79 79.0736 470.56 81.926C475.376 84.7785 479.281 88.7766 482.274 93.9203C485.267 99.0173 486.763 105.096 486.763 112.157C486.763 119.779 484.869 126.583 481.081 132.569C477.34 138.507 471.799 143.207 464.458 146.667C457.116 150.127 448.068 151.858 437.313 151.858H375.938ZM406.31 127.027H431.07C439.534 127.027 445.706 125.414 449.588 122.188C453.469 118.914 455.409 114.565 455.409 109.141C455.409 105.166 454.451 101.659 452.534 98.6199C450.616 95.5804 447.881 93.1955 444.327 91.4654C440.82 89.7352 436.635 88.8701 431.772 88.8701H406.31V127.027ZM406.31 68.3185H428.826C432.987 68.3185 436.681 67.5937 439.908 66.1441C443.181 64.6477 445.753 62.5435 447.624 59.8313C449.541 57.1192 450.499 53.8692 450.499 50.0816C450.499 44.8911 448.652 40.7059 444.958 37.5262C441.311 34.3464 436.12 32.7565 429.387 32.7565H406.31V68.3185Z" fill="black"/>
<path d="M345.862 153.681C341.233 153.681 337.258 152.045 333.938 148.772C330.665 145.451 329.028 141.477 329.028 136.847C329.028 132.265 330.665 128.337 333.938 125.064C337.258 121.79 341.233 120.154 345.862 120.154C350.351 120.154 354.279 121.79 357.646 125.064C361.013 128.337 362.696 132.265 362.696 136.847C362.696 139.934 361.902 142.763 360.312 145.335C358.769 147.86 356.734 149.894 354.209 151.437C351.684 152.933 348.902 153.681 345.862 153.681Z" fill="#0060FF"/>
<path d="M247.258 89.5714V151.858H217.377V44.1194H245.855V63.1279H247.117C249.502 56.8619 253.5 51.9052 259.112 48.2578C264.723 44.5636 271.527 42.7166 279.523 42.7166C287.005 42.7166 293.528 44.3532 299.093 47.6265C304.657 50.8998 308.983 55.5759 312.069 61.6549C315.155 67.6871 316.698 74.8884 316.698 83.2586V151.858H286.818V88.5894C286.865 81.9961 285.181 76.8523 281.768 73.1582C278.354 69.4173 273.654 67.5468 267.669 67.5468C263.648 67.5468 260.094 68.4119 257.007 70.1421C253.968 71.8723 251.583 74.3974 249.853 77.7174C248.17 80.9907 247.304 84.9421 247.258 89.5714Z" fill="black"/>
<path d="M156.772 153.962C145.876 153.962 136.454 151.647 128.504 147.018C120.602 142.342 114.499 135.842 110.197 127.518C105.895 119.148 103.744 109.445 103.744 98.4093C103.744 87.2801 105.895 77.5538 110.197 69.2302C114.499 60.86 120.602 54.3601 128.504 49.7307C136.454 45.0546 145.876 42.7166 156.772 42.7166C167.667 42.7166 177.066 45.0546 184.969 49.7307C192.918 54.3601 199.044 60.86 203.346 69.2302C207.648 77.5538 209.799 87.2801 209.799 98.4093C209.799 109.445 207.648 119.148 203.346 127.518C199.044 135.842 192.918 142.342 184.969 147.018C177.066 151.647 167.667 153.962 156.772 153.962ZM156.912 130.815C161.869 130.815 166.007 129.412 169.327 126.606C172.647 123.754 175.149 119.873 176.832 114.963C178.562 110.053 179.427 104.465 179.427 98.1989C179.427 91.9329 178.562 86.3449 176.832 81.4349C175.149 76.525 172.647 72.6438 169.327 69.7914C166.007 66.9389 161.869 65.5127 156.912 65.5127C151.908 65.5127 147.7 66.9389 144.286 69.7914C140.919 72.6438 138.371 76.525 136.641 81.4349C134.957 86.3449 134.116 91.9329 134.116 98.1989C134.116 104.465 134.957 110.053 136.641 114.963C138.371 119.873 140.919 123.754 144.286 126.606C147.7 129.412 151.908 130.815 156.912 130.815Z" fill="black"/>
<path d="M65.3732 8.20679H95.3939V108.37C95.3939 117.628 93.3131 125.671 89.1513 132.498C85.0363 139.326 79.308 144.586 71.9665 148.28C64.625 151.975 56.091 153.822 46.3647 153.822C37.7138 153.822 29.8579 152.302 22.7969 149.262C15.7827 146.176 10.2181 141.5 6.10314 135.234C1.98815 128.921 -0.0459732 120.995 0.000788111 111.456H30.232C30.3255 115.244 31.0971 118.493 32.5467 121.206C34.0431 123.871 36.0772 125.928 38.649 127.378C41.2677 128.781 44.3539 129.482 47.9078 129.482C51.6487 129.482 54.8051 128.687 57.377 127.098C59.9956 125.461 61.983 123.076 63.339 119.943C64.6951 116.81 65.3732 112.952 65.3732 108.37V8.20679Z" fill="black"/>
<path d="M869.84 216.09L876.28 205.66H884.61L865.71 235.62V255.5H858.29V235.62L839.32 205.66H847.79L854.37 216.16C855.116 217.373 856.353 219.357 858.08 222.11C858.547 222.857 859.06 223.72 859.62 224.7C860.226 225.68 860.716 226.52 861.09 227.22C861.51 227.873 861.86 228.433 862.14 228.9C864.52 224.747 867.086 220.477 869.84 216.09Z" fill="black"/>
<path d="M749.808 256.62C742.855 256.62 737.208 254.263 732.868 249.55C728.481 244.883 726.288 238.56 726.288 230.58C726.288 222.647 728.458 216.323 732.798 211.61C737.138 206.897 742.808 204.54 749.808 204.54C755.315 204.54 760.051 206.01 764.018 208.95C767.985 211.937 770.528 216.347 771.648 222.18H764.088C763.155 218.54 761.428 215.81 758.908 213.99C756.435 212.123 753.401 211.19 749.808 211.19C745.001 211.19 741.175 212.94 738.328 216.44C735.481 219.893 734.058 224.607 734.058 230.58C734.058 236.553 735.481 241.29 738.328 244.79C741.175 248.243 745.001 249.97 749.808 249.97C753.401 249.97 756.621 248.873 759.468 246.68C762.221 244.487 763.878 241.29 764.438 237.09H771.928C771.321 243.297 768.918 248.103 764.718 251.51C760.565 254.917 755.595 256.62 749.808 256.62Z" fill="black"/>
<path d="M642.424 220.78V205.66H649.634V255.5H641.024L625.694 231.35C621.214 224.35 617.971 219.007 615.964 215.32C616.151 220.873 616.244 229.227 616.244 240.38V255.5H608.964V205.66H617.574L632.974 229.81C637.127 236.39 640.371 241.757 642.704 245.91C642.517 240.31 642.424 231.933 642.424 220.78Z" fill="black"/>
<path d="M532.893 205.66V212.38H504.823V226.45H530.233V233.03H504.823V248.78H532.683V255.5H497.333V205.66H532.893Z" fill="black"/>
<path d="M397.661 235.69V229.32H419.361V255.5H413.621L412.291 248.85C408.558 254.03 403.145 256.62 396.051 256.62C388.865 256.62 383.148 254.217 378.901 249.41C374.561 244.65 372.391 238.373 372.391 230.58C372.391 222.693 374.585 216.393 378.971 211.68C383.311 206.92 389.145 204.54 396.471 204.54C402.585 204.54 407.648 206.127 411.661 209.3C415.628 212.52 418.008 216.79 418.801 222.11H411.101C410.401 218.75 408.721 216.09 406.061 214.13C403.448 212.17 400.275 211.19 396.541 211.19C391.548 211.19 387.581 212.94 384.641 216.44C381.655 219.893 380.161 224.607 380.161 230.58C380.161 236.553 381.655 241.267 384.641 244.72C387.675 248.22 391.688 249.97 396.681 249.97C401.021 249.97 404.685 248.617 407.671 245.91C410.658 243.25 412.221 239.843 412.361 235.69H397.661Z" fill="black"/>
<path d="M303.204 255.5H295.294L290.394 242.55H267.994L263.164 255.5H255.394L274.854 205.66H283.464L303.204 255.5ZM271.424 233.31L270.374 236.04H287.944L286.894 233.31C284.421 227.15 281.831 220.337 279.124 212.87C275.904 221.457 273.337 228.27 271.424 233.31Z" fill="black"/>
</svg>
