<svg width="1142" height="255" viewBox="0 0 1142 255" fill="none" xmlns="http://www.w3.org/2000/svg">
<path d="M1089.12 194.504C1079.44 194.504 1071.14 193.171 1064.21 190.506C1057.34 187.887 1051.87 184.31 1047.8 179.774C1043.73 175.238 1041.09 170.141 1039.88 164.483L1067.51 160.766C1068.35 162.917 1069.69 164.927 1071.51 166.798C1073.33 168.668 1075.74 170.165 1078.73 171.287C1081.77 172.456 1085.47 173.04 1089.82 173.04C1096.32 173.04 1101.67 171.451 1105.88 168.271C1110.13 165.138 1112.26 159.877 1112.26 152.489V132.779H1111C1109.69 135.772 1107.73 138.601 1105.11 141.266C1102.49 143.931 1099.12 146.106 1095.01 147.789C1090.89 149.473 1085.98 150.314 1080.28 150.314C1072.19 150.314 1064.82 148.444 1058.18 144.703C1051.59 140.915 1046.33 135.14 1042.4 127.378C1038.52 119.569 1036.58 109.702 1036.58 97.778C1036.58 85.5733 1038.57 75.3793 1042.54 67.1961C1046.52 59.0129 1051.8 52.8871 1058.39 48.8189C1065.03 44.7507 1072.3 42.7166 1080.21 42.7166C1086.24 42.7166 1091.29 43.7453 1095.36 45.8028C1099.43 47.8135 1102.7 50.3386 1105.18 53.3781C1107.7 56.3709 1109.64 59.3168 1111 62.216H1112.12V44.1194H1141.79V152.91C1141.79 162.075 1139.55 169.744 1135.06 175.916C1130.57 182.089 1124.35 186.718 1116.4 189.804C1108.5 192.937 1099.4 194.504 1089.12 194.504ZM1089.75 127.869C1094.56 127.869 1098.63 126.677 1101.95 124.292C1105.32 121.86 1107.89 118.4 1109.67 113.911C1111.49 109.375 1112.4 103.951 1112.4 97.6377C1112.4 91.325 1111.51 85.8539 1109.74 81.2245C1107.96 76.5484 1105.39 72.9244 1102.02 70.3525C1098.65 67.7806 1094.56 66.4947 1089.75 66.4947C1084.84 66.4947 1080.7 67.8274 1077.33 70.4928C1073.96 73.1114 1071.42 76.7588 1069.69 81.4349C1067.96 86.1111 1067.09 91.512 1067.09 97.6377C1067.09 103.857 1067.96 109.235 1069.69 113.77C1071.46 118.26 1074.01 121.743 1077.33 124.222C1080.7 126.653 1084.84 127.869 1089.75 127.869Z" fill="white"/>
<path d="M959.436 89.5714V151.858H929.556V44.1194H958.034V63.1279H959.296C961.681 56.8619 965.679 51.9052 971.29 48.2578C976.902 44.5636 983.706 42.7166 991.702 42.7166C999.184 42.7166 1005.71 44.3532 1011.27 47.6265C1016.84 50.8998 1021.16 55.5759 1024.25 61.6549C1027.33 67.6871 1028.88 74.8884 1028.88 83.2586V151.858H998.997V88.5894C999.043 81.9961 997.36 76.8523 993.946 73.1582C990.533 69.4173 985.833 67.5468 979.848 67.5468C975.826 67.5468 972.272 68.4119 969.186 70.1421C966.147 71.8723 963.762 74.3974 962.032 77.7174C960.348 80.9907 959.483 84.9421 959.436 89.5714Z" fill="white"/>
<path d="M887.591 151.857V44.1193H917.472V151.857H887.591ZM902.602 30.2312C898.159 30.2312 894.348 28.7582 891.169 25.8123C888.036 22.8195 886.469 19.2423 886.469 15.0805C886.469 10.9655 888.036 7.43506 891.169 4.4891C894.348 1.49637 898.159 0 902.602 0C907.044 0 910.832 1.49637 913.965 4.4891C917.144 7.43506 918.734 10.9655 918.734 15.0805C918.734 19.2423 917.144 22.8195 913.965 25.8123C910.832 28.7582 907.044 30.2312 902.602 30.2312Z" fill="white"/>
<path d="M813.571 153.611C805.388 153.611 797.976 151.507 791.336 147.298C784.743 143.043 779.506 136.8 775.624 128.57C771.79 120.294 769.873 110.147 769.873 98.1289C769.873 85.7839 771.86 75.5197 775.835 67.3365C779.81 59.1065 785.094 52.9574 791.687 48.8892C798.327 44.7742 805.599 42.7167 813.501 42.7167C819.533 42.7167 824.56 43.7454 828.582 45.8029C832.65 47.8137 835.923 50.3388 838.402 53.3783C840.927 56.371 842.844 59.3169 844.153 62.2161H845.065V8.20679H874.875V151.858H845.416V134.603H844.153C842.75 137.595 840.763 140.565 838.191 143.511C835.666 146.41 832.369 148.818 828.301 150.735C824.28 152.653 819.37 153.611 813.571 153.611ZM823.04 129.833C827.857 129.833 831.925 128.524 835.245 125.905C838.612 123.24 841.184 119.522 842.961 114.753C844.784 109.983 845.696 104.395 845.696 97.9886C845.696 91.5823 844.808 86.0177 843.031 81.2948C841.254 76.5719 838.682 72.9245 835.315 70.3526C831.949 67.7807 827.857 66.4948 823.04 66.4948C818.13 66.4948 813.992 67.8275 810.625 70.4929C807.259 73.1583 804.71 76.8524 802.98 81.5753C801.25 86.2982 800.385 91.7693 800.385 97.9886C800.385 104.255 801.25 109.796 802.98 114.612C804.757 119.382 807.305 123.123 810.625 125.835C813.992 128.5 818.13 129.833 823.04 129.833Z" fill="white"/>
<path d="M692.731 89.5714V151.858H662.85V44.1194H691.328V63.1279H692.59C694.975 56.8619 698.973 51.9052 704.585 48.2578C710.196 44.5636 717 42.7166 724.996 42.7166C732.478 42.7166 739.001 44.3532 744.566 47.6265C750.13 50.8998 754.456 55.5759 757.542 61.6549C760.628 67.6871 762.171 74.8884 762.171 83.2586V151.858H732.291V88.5894C732.337 81.9961 730.654 76.8523 727.241 73.1582C723.827 69.4173 719.127 67.5468 713.142 67.5468C709.12 67.5468 705.567 68.4119 702.48 70.1421C699.441 71.8723 697.056 74.3974 695.326 77.7174C693.642 80.9907 692.777 84.9421 692.731 89.5714Z" fill="white"/>
<path d="M590.846 153.892C583.972 153.892 577.847 152.699 572.469 150.314C567.092 147.883 562.836 144.306 559.703 139.583C556.617 134.813 555.074 128.874 555.074 121.767C555.074 115.781 556.173 110.754 558.371 106.686C560.568 102.618 563.561 99.3445 567.349 96.8662C571.136 94.3878 575.439 92.5174 580.255 91.2548C585.118 89.9923 590.215 89.1038 595.546 88.5894C601.812 87.9348 606.862 87.3269 610.697 86.7657C614.531 86.1578 617.313 85.2694 619.043 84.1003C620.774 82.9313 621.639 81.2011 621.639 78.9098V78.489C621.639 74.0467 620.236 70.6097 617.43 68.1781C614.671 65.7465 610.743 64.5307 605.646 64.5307C600.269 64.5307 595.99 65.7231 592.81 68.108C589.631 70.446 587.526 73.392 586.498 76.9459L558.862 74.7013C560.264 68.1547 563.023 62.4966 567.138 57.7269C571.253 52.9105 576.561 49.2164 583.061 46.6445C589.607 44.0259 597.183 42.7166 605.787 42.7166C611.772 42.7166 617.5 43.418 622.971 44.8208C628.489 46.2237 633.376 48.3981 637.631 51.344C641.933 54.29 645.323 58.0777 647.802 62.707C650.28 67.2896 651.519 72.7841 651.519 79.1904V151.858H623.182V136.917H622.34C620.61 140.284 618.295 143.253 615.396 145.825C612.497 148.35 609.013 150.338 604.945 151.787C600.877 153.19 596.177 153.892 590.846 153.892ZM599.404 133.27C603.799 133.27 607.68 132.405 611.047 130.675C614.414 128.898 617.056 126.513 618.973 123.52C620.891 120.527 621.849 117.137 621.849 113.35V101.916C620.914 102.524 619.628 103.085 617.991 103.6C616.401 104.067 614.601 104.512 612.59 104.933C610.58 105.307 608.569 105.657 606.558 105.985C604.547 106.265 602.724 106.522 601.087 106.756C597.58 107.271 594.517 108.089 591.899 109.211C589.28 110.333 587.246 111.853 585.796 113.77C584.347 115.641 583.622 117.979 583.622 120.785C583.622 124.853 585.095 127.962 588.041 130.114C591.033 132.218 594.821 133.27 599.404 133.27Z" fill="white"/>
<path d="M494.241 151.858V44.1195H523.21V62.9176H524.332C526.296 56.2307 529.593 51.1805 534.222 47.7669C538.852 44.3066 544.182 42.5764 550.215 42.5764C551.711 42.5764 553.324 42.6699 555.054 42.857C556.785 43.044 558.304 43.3012 559.614 43.6285V70.1422C558.211 69.7214 556.27 69.3473 553.792 69.02C551.313 68.6926 549.046 68.529 546.988 68.529C542.592 68.529 538.665 69.4876 535.204 71.4048C531.791 73.2752 529.078 75.8939 527.068 79.2607C525.104 82.6275 524.122 86.5087 524.122 90.9043V151.858H494.241Z" fill="white"/>
<path d="M376.066 151.858V8.20679H433.583C444.151 8.20679 452.965 9.77329 460.026 12.9063C467.087 16.0393 472.395 20.3881 475.949 25.9527C479.502 31.4706 481.279 37.8301 481.279 45.0314C481.279 50.6427 480.157 55.576 477.912 59.8313C475.668 64.0398 472.582 67.5002 468.654 70.2123C464.773 72.8777 460.33 74.7716 455.327 75.8938V77.2967C460.798 77.5305 465.918 79.0736 470.688 81.926C475.504 84.7785 479.409 88.7766 482.402 93.9203C485.394 99.0173 486.891 105.096 486.891 112.157C486.891 119.779 484.997 126.583 481.209 132.569C477.468 138.507 471.927 143.207 464.586 146.667C457.244 150.127 448.196 151.858 437.441 151.858H376.066ZM406.438 127.027H431.198C439.662 127.027 445.834 125.414 449.715 122.188C453.597 118.914 455.537 114.565 455.537 109.141C455.537 105.166 454.579 101.659 452.661 98.6199C450.744 95.5804 448.009 93.1955 444.455 91.4654C440.948 89.7352 436.763 88.8701 431.899 88.8701H406.438V127.027ZM406.438 68.3185H428.953C433.115 68.3185 436.809 67.5937 440.036 66.1441C443.309 64.6477 445.881 62.5435 447.751 59.8313C449.669 57.1192 450.627 53.8692 450.627 50.0816C450.627 44.8911 448.78 40.7059 445.086 37.5262C441.439 34.3464 436.248 32.7565 429.514 32.7565H406.438V68.3185Z" fill="white"/>
<path d="M345.99 153.681C341.361 153.681 337.386 152.045 334.066 148.772C330.793 145.451 329.156 141.477 329.156 136.847C329.156 132.265 330.793 128.337 334.066 125.064C337.386 121.79 341.361 120.154 345.99 120.154C350.479 120.154 354.407 121.79 357.774 125.064C361.141 128.337 362.824 132.265 362.824 136.847C362.824 139.934 362.029 142.763 360.44 145.335C358.896 147.86 356.862 149.894 354.337 151.437C351.812 152.933 349.03 153.681 345.99 153.681Z" fill="#0060FF"/>
<path d="M247.385 89.5714V151.858H217.505V44.1194H245.983V63.1279H247.245C249.63 56.8619 253.628 51.9052 259.239 48.2578C264.851 44.5636 271.655 42.7166 279.651 42.7166C287.133 42.7166 293.656 44.3532 299.22 47.6265C304.785 50.8998 309.11 55.5759 312.197 61.6549C315.283 67.6871 316.826 74.8884 316.826 83.2586V151.858H286.946V88.5894C286.992 81.9961 285.309 76.8523 281.895 73.1582C278.482 69.4173 273.782 67.5468 267.797 67.5468C263.775 67.5468 260.221 68.4119 257.135 70.1421C254.096 71.8723 251.711 74.3974 249.981 77.7174C248.297 80.9907 247.432 84.9421 247.385 89.5714Z" fill="white"/>
<path d="M156.9 153.962C146.004 153.962 136.582 151.647 128.632 147.018C120.73 142.342 114.627 135.842 110.325 127.518C106.023 119.148 103.872 109.445 103.872 98.4093C103.872 87.2801 106.023 77.5538 110.325 69.2302C114.627 60.86 120.73 54.3601 128.632 49.7307C136.582 45.0546 146.004 42.7166 156.9 42.7166C167.795 42.7166 177.194 45.0546 185.097 49.7307C193.046 54.3601 199.172 60.86 203.474 69.2302C207.776 77.5538 209.927 87.2801 209.927 98.4093C209.927 109.445 207.776 119.148 203.474 127.518C199.172 135.842 193.046 142.342 185.097 147.018C177.194 151.647 167.795 153.962 156.9 153.962ZM157.04 130.815C161.996 130.815 166.135 129.412 169.455 126.606C172.775 123.754 175.277 119.873 176.96 114.963C178.69 110.053 179.555 104.465 179.555 98.1989C179.555 91.9329 178.69 86.3449 176.96 81.4349C175.277 76.525 172.775 72.6438 169.455 69.7914C166.135 66.9389 161.996 65.5127 157.04 65.5127C152.036 65.5127 147.828 66.9389 144.414 69.7914C141.047 72.6438 138.499 76.525 136.769 81.4349C135.085 86.3449 134.244 91.9329 134.244 98.1989C134.244 104.465 135.085 110.053 136.769 114.963C138.499 119.873 141.047 123.754 144.414 126.606C147.828 129.412 152.036 130.815 157.04 130.815Z" fill="white"/>
<path d="M65.5011 8.20679H95.5219V108.37C95.5219 117.628 93.441 125.671 89.2792 132.498C85.1642 139.326 79.436 144.586 72.0944 148.28C64.7529 151.975 56.219 153.822 46.4926 153.822C37.8417 153.822 29.9858 152.302 22.9249 149.262C15.9107 146.176 10.3461 141.5 6.23107 135.234C2.11607 128.921 0.0819565 120.995 0.128718 111.456H30.3599C30.4535 115.244 31.225 118.493 32.6746 121.206C34.171 123.871 36.2051 125.928 38.777 127.378C41.3956 128.781 44.4819 129.482 48.0357 129.482C51.7766 129.482 54.933 128.687 57.5049 127.098C60.1235 125.461 62.1109 123.076 63.467 119.943C64.823 116.81 65.5011 112.952 65.5011 108.37V8.20679Z" fill="white"/>
<path d="M836.582 253.704V236.297L820.101 211.361H828.002L840.1 230.125H840.409L852.383 211.361H859.975L843.495 236.297V253.704H836.582Z" fill="white"/>
<path d="M736.846 254.445C732.525 254.445 728.842 253.683 725.797 252.161C722.793 250.597 720.489 248.19 718.884 244.939C717.279 241.688 716.477 237.553 716.477 232.532C716.477 225.125 718.267 219.632 721.847 216.052C725.468 212.43 730.488 210.62 736.908 210.62C740.446 210.62 743.615 211.217 746.413 212.41C749.253 213.603 751.475 215.393 753.079 217.78C754.725 220.126 755.548 223.129 755.548 226.792H748.512C748.512 224.529 748.039 222.636 747.092 221.113C746.146 219.591 744.788 218.438 743.018 217.657C741.29 216.875 739.274 216.484 736.969 216.484C734.089 216.484 731.64 217.06 729.624 218.212C727.649 219.323 726.147 221.01 725.118 223.273C724.13 225.537 723.637 228.417 723.637 231.915V233.273C723.637 236.771 724.13 239.651 725.118 241.914C726.147 244.178 727.649 245.865 729.624 246.976C731.599 248.046 734.048 248.581 736.969 248.581C739.356 248.581 741.434 248.21 743.203 247.47C744.973 246.688 746.331 245.536 747.277 244.013C748.265 242.491 748.759 240.598 748.759 238.334H755.548C755.548 241.997 754.725 245.021 753.079 247.408C751.475 249.795 749.253 251.564 746.413 252.716C743.615 253.869 740.426 254.445 736.846 254.445Z" fill="white"/>
<path d="M611.46 253.704V211.361H618.126L637.446 237.902C637.693 238.149 637.96 238.499 638.248 238.952C638.578 239.404 638.886 239.857 639.174 240.31C639.462 240.762 639.668 241.133 639.791 241.421H640.1C640.1 240.803 640.1 240.207 640.1 239.631C640.1 239.055 640.1 238.478 640.1 237.902V211.361H646.766V253.704H640.347L620.78 226.854C620.451 226.36 620.039 225.743 619.546 225.002C619.052 224.22 618.682 223.623 618.435 223.212H618.126C618.126 223.788 618.126 224.385 618.126 225.002C618.126 225.578 618.126 226.195 618.126 226.854V253.704H611.46Z" fill="white"/>
<path d="M508.143 253.704V211.361H540.98V217.286H515.056V229.076H538.264V235.001H515.056V247.778H541.351V253.704H508.143Z" fill="white"/>
<path d="M416.548 254.445C409.84 254.445 404.676 252.675 401.055 249.136C397.475 245.597 395.685 240.063 395.685 232.532C395.685 227.594 396.528 223.52 398.215 220.311C399.902 217.06 402.351 214.632 405.561 213.027C408.77 211.422 412.68 210.62 417.288 210.62C420.045 210.62 422.597 210.928 424.942 211.546C427.329 212.163 429.407 213.109 431.176 214.385C432.987 215.62 434.366 217.183 435.312 219.076C436.3 220.969 436.793 223.212 436.793 225.804H429.757C429.757 224.199 429.428 222.821 428.769 221.669C428.152 220.475 427.267 219.488 426.115 218.706C425.004 217.924 423.687 217.368 422.165 217.039C420.683 216.669 419.099 216.484 417.412 216.484C415.066 216.484 412.968 216.792 411.116 217.41C409.305 218.027 407.783 218.973 406.548 220.249C405.314 221.525 404.388 223.129 403.771 225.064C403.153 226.998 402.845 229.281 402.845 231.915V233.211C402.845 236.832 403.359 239.775 404.388 242.038C405.458 244.301 407.021 245.968 409.079 247.038C411.178 248.066 413.729 248.581 416.733 248.581C419.572 248.581 421.959 248.169 423.893 247.346C425.827 246.523 427.308 245.309 428.337 243.704C429.366 242.058 429.88 240.022 429.88 237.594V236.976H415.622V231.236H436.793V253.704H431.794L431.115 248.642C429.963 250 428.646 251.111 427.164 251.976C425.683 252.799 424.057 253.416 422.288 253.827C420.56 254.239 418.646 254.445 416.548 254.445Z" fill="white"/>
<path d="M288.923 253.704L305.527 211.361H314.353L331.019 253.704H323.612L319.847 243.89H299.786L296.021 253.704H288.923ZM302.008 238.026H317.563L312.81 225.619C312.687 225.249 312.502 224.734 312.255 224.076C312.008 223.418 311.74 222.697 311.452 221.916C311.205 221.134 310.938 220.352 310.65 219.57C310.403 218.747 310.177 218.006 309.971 217.348H309.6C309.354 218.13 309.045 219.056 308.675 220.126C308.304 221.195 307.934 222.224 307.564 223.212C307.234 224.199 306.946 225.002 306.699 225.619L302.008 238.026Z" fill="white"/>
</svg>
